<?xml version="1.0" encoding="utf-8"?>
<!-- Generator: Adobe Illustrator 24.1.1, SVG Export Plug-In . SVG Version: 6.00 Build 0)  -->
<svg version="1.1" id="Layer_1" xmlns="http://www.w3.org/2000/svg" xmlns:xlink="http://www.w3.org/1999/xlink" x="0px" y="0px"
	 viewBox="0 0 56 37" style="enable-background:new 0 0 56 37;" xml:space="preserve">
<g>
	<path d="M29.9,4.1c-7.55,0-13.64,5.65-13.64,12.58c0,5.14,2.18,7.6,5.09,9.84h0.06v6.04c0,0.28,0.28,0.45,0.56,0.28l5.14-3.86
		l0.11,0.06c0.89,0.17,1.79,0.28,2.68,0.28c7.55,0,13.64-5.65,13.64-12.64C43.54,9.74,37.45,4.1,29.9,4.1z M25.32,19.86
		c1.34,0,2.52-0.78,2.85-2.01h1.96c-0.5,2.35-2.35,3.91-4.81,3.91c-2.85,0-5.14-2.12-5.14-5.09s2.29-5.14,5.14-5.14
		c2.52,0,4.36,1.62,4.81,4.03h-1.96c-0.28-1.29-1.45-2.12-2.85-2.12c-1.9,0-3.19,1.34-3.19,3.24
		C22.13,18.52,23.58,19.86,25.32,19.86z M38.34,21.6h-1.79v-4.08c0-0.95-0.56-1.45-1.4-1.45c-0.95,0-1.57,0.56-1.57,1.73v3.8H31.8
		V11.59h1.79v3.75c0.45-0.67,1.17-0.95,2.12-0.95c0.73,0,1.4,0.22,1.9,0.73c0.5,0.56,0.73,1.23,0.73,2.18V21.6z"/>
</g>
</svg>
